<svg width="206" height="36" viewBox="0 0 206 36" fill="none" xmlns="http://www.w3.org/2000/svg">
<path d="M0 18.1H17.7V23.5H0V18.1Z" fill="black"/>
<path d="M31 1.10001V28.8H48.3V34.7H24.7V1.10001H31Z" fill="black"/>
<path d="M85 18.1C84.9 26.8 79.6 35.5 67.8 35.5C56 35.5 50.5 26.9 50.5 18.1C50.5 7.49999 58.2 0.399994 67.9 0.399994C79.4 0.499994 85.1 9.29999 85 18.1ZM67.8 29.6C75.7 29.6 78.7 23.6 78.8 18.1C78.9 12.5 75.7 6.19999 68 6.09999C60.8 6.09999 56.6 11.5 56.8 18.1C56.9 23.7 59.9 29.6 67.8 29.6Z" fill="black"/>
<path d="M90 18.1H107.7V23.5H90V18.1Z" fill="black"/>
<path d="M139 9.3C136.7 7.1 133.4 5.9 130.5 5.9C123.3 5.9 118.9 11.4 118.9 18.3C118.9 23.8 122.1 29.5 130.5 29.5C133.1 29.5 135.4 28.9 138.1 26.8V20.8H129.5V15.1H143.9V29.3C140.6 33.1 136.4 35.3 130.5 35.3C117.9 35.3 112.7 27 112.7 18.2C112.7 8.7 118.6 0 130.5 0C135 0 139.5 1.7 143 5.1L139 9.3Z" fill="black"/>
<path d="M182.8 18.1C182.7 26.8 177.4 35.5 165.6 35.5C153.8 35.5 148.3 27 148.3 18.2C148.3 7.6 156 0.5 165.7 0.5C177.2 0.5 182.9 9.3 182.8 18.1ZM165.6 29.6C173.5 29.6 176.5 23.6 176.6 18.1C176.7 12.5 173.5 6.2 165.8 6.1C158.6 6.1 154.4 11.5 154.6 18.1C154.7 23.7 157.7 29.6 165.6 29.6Z" fill="black"/>
<path d="M187.8 18.1H205.5V23.5H187.8V18.1Z" fill="black"/>
</svg>
